# xmcd
#
# Track frame offsets:
#	150
#	13054
#	32997
#	45950
#	64277
#	91177
#	118846
#	135311
#	144285
#	167489
#	195557
#	219081
#
# Disc length: 3198 seconds
#
# Revision: 1
# Processed by: cddbd v1.5PL3 Copyright (c) Steve Scherf et al.
# Submitted via: CDmax 2.0
#
DISCID=990c7c0c
DTITLE=Jorma Kaukonen - Schoenberg Guitars, 01.04.2004 - d1
DYEAR=2004
DGENRE=Blues
TTITLE0=Intro
TTITLE1=Waiting for a Train
TTITLE2=Another Man Done Gone
TTITLE3=Keep Your Lamps Trimmed and Burning
TTITLE4=Blue Railroad Train
TTITLE5=Heart Temporary
TTITLE6=Embryonic Journey
TTITLE7=Fur Peace Rag
TTITLE8=Probition Blues
TTITLE9=Uncle Sam Blues
TTITLE10=Genesis
TTITLE11=That'll Never Happen No More
EXTD=Jorma Kaukonen  \nJanuary 4, 2004\nSchoenberg Guitars\nTiburon, CA\n\nMa
EXTD=ster: Sony ECM-MS957>DAT\nTransfer: DAT>Echo Mia>Sound Forge XP 4.5>WAV>
EXTD=CDWAV>mkwACT(v.0.97b1)>SHN\n\nDisc 1:\n\n1st Set:\n1.  Intro \n2.  Waiti
EXTD=ng for a Train\n3.  Another Man Done Gone\n4.  Keep Your Lamps Trimmed a
EXTD=nd Burning\n5.  Blue Railroad Train\n6.  Heart Temporary\n7.  Embryoni
EXTD=c Journey\n8.  Fur Peace Rag\n9.  Probition Blues\n10. Uncle Sam Blues\n
EXTD=11. Genesis\n12. That'll Never Happen No More\n\n---------\n\nDisc 2:\n\
EXTD=n2nd Set:\n1.  Let Us Get Together Right Down Here\n2.  Hesitation Blues
EXTD=\n3.  Death Don't Have No Mercy\n4.  Do Not Go Gentle\n5.  Trouble in Mi
EXTD=nd\n6.  Search My Heart\n7.  Living in the Moment\n8.  Good Shepherd\n9
EXTD=True Religion\n10. I am the Light of this World\n11. What Are They Do
EXTD=ing in Heaven Today?\n12. San Francisco Bay Blues
EXTT0=
EXTT1=
EXTT2=
EXTT3=
EXTT4=
EXTT5=
EXTT6=
EXTT7=
EXTT8=
EXTT9=
EXTT10=
EXTT11=
PLAYORDER=
